<?xml version="1.0" encoding="UTF-8" standalone="no"?>
<!-- Created with Inkscape (http://www.inkscape.org/) -->

<svg
   width="296.99997mm"
   height="210mm"
   viewBox="0 0 1122.5196 793.70081"
   version="1.1"
   id="svg1"
   xml:space="preserve"
   xmlns="http://www.w3.org/2000/svg"
   xmlns:svg="http://www.w3.org/2000/svg"><defs
     id="defs1"><marker
       style="overflow:visible"
       id="marker29"
       refX="0"
       refY="0"
       orient="auto-start-reverse"
       markerWidth="1"
       markerHeight="1"
       viewBox="0 0 1 1"
       preserveAspectRatio="xMidYMid"><path
         style="fill:none;stroke:context-stroke;stroke-width:1;stroke-linecap:butt"
         d="M 3,-3 0,0 3,3"
         transform="rotate(180,0.125,0)"
         id="path29" /></marker><marker
       style="overflow:visible"
       id="marker28"
       refX="0"
       refY="0"
       orient="auto-start-reverse"
       markerWidth="1"
       markerHeight="1"
       viewBox="0 0 1 1"
       preserveAspectRatio="xMidYMid"><path
         style="fill:none;stroke:context-stroke;stroke-width:1;stroke-linecap:butt"
         d="M 3,-3 0,0 3,3"
         transform="rotate(180,0.125,0)"
         id="path28" /></marker><marker
       style="overflow:visible"
       id="marker27"
       refX="0"
       refY="0"
       orient="auto-start-reverse"
       markerWidth="1"
       markerHeight="1"
       viewBox="0 0 1 1"
       preserveAspectRatio="xMidYMid"><path
         style="fill:none;stroke:context-stroke;stroke-width:1;stroke-linecap:butt"
         d="M 3,-3 0,0 3,3"
         transform="rotate(180,0.125,0)"
         id="path27" /></marker><marker
       style="overflow:visible"
       id="marker16"
       refX="0"
       refY="0"
       orient="auto-start-reverse"
       markerWidth="1"
       markerHeight="1"
       viewBox="0 0 1 1"
       preserveAspectRatio="xMidYMid"><path
         style="fill:none;stroke:context-stroke;stroke-width:1;stroke-linecap:butt"
         d="M 3,-3 0,0 3,3"
         transform="rotate(180,0.125,0)"
         id="path16" /></marker><marker
       style="overflow:visible"
       id="marker15"
       refX="0"
       refY="0"
       orient="auto-start-reverse"
       markerWidth="1"
       markerHeight="1"
       viewBox="0 0 1 1"
       preserveAspectRatio="xMidYMid"><path
         style="fill:none;stroke:context-stroke;stroke-width:1;stroke-linecap:butt"
         d="M 3,-3 0,0 3,3"
         transform="rotate(180,0.125,0)"
         id="path15" /></marker><marker
       style="overflow:visible"
       id="marker14"
       refX="0"
       refY="0"
       orient="auto-start-reverse"
       markerWidth="1"
       markerHeight="1"
       viewBox="0 0 1 1"
       preserveAspectRatio="xMidYMid"><path
         style="fill:none;stroke:context-stroke;stroke-width:1;stroke-linecap:butt"
         d="M 3,-3 0,0 3,3"
         transform="rotate(180,0.125,0)"
         id="path14" /></marker><marker
       style="overflow:visible"
       id="ArrowWide"
       refX="0"
       refY="0"
       orient="auto-start-reverse"
       markerWidth="1"
       markerHeight="1"
       viewBox="0 0 1 1"
       preserveAspectRatio="xMidYMid"><path
         style="fill:none;stroke:context-stroke;stroke-width:1;stroke-linecap:butt"
         d="M 3,-3 0,0 3,3"
         transform="rotate(180,0.125,0)"
         id="path1" /></marker><linearGradient
       id="swatch3"><stop
         style="stop-color:#000000;stop-opacity:1;"
         offset="0"
         id="stop3" /></linearGradient></defs><g
     id="layer1"><rect
       style="fill:#ffffff;fill-opacity:1;stroke:#000000;stroke-width:2.74087;stroke-linecap:butt;stroke-linejoin:miter;stroke-dasharray:none;stroke-dashoffset:0;stroke-opacity:1"
       id="rect2-9"
       width="1065.3645"
       height="658.43146"
       x="33.241035"
       y="80.283356"
       ry="58.2131"
       rx="58.2131" /><rect
       style="fill:none;fill-opacity:1;stroke:#000000;stroke-width:0.735785;stroke-linecap:butt;stroke-linejoin:miter;stroke-dasharray:4.41471, 4.41471;stroke-dashoffset:0;stroke-opacity:1"
       id="rect3-6-7"
       width="319.71307"
       height="416.3757"
       x="186.67557"
       y="189.30482"
       rx="71.562263"
       ry="93.198524" /><rect
       style="fill:none;fill-opacity:1;stroke:#000000;stroke-width:0.735785;stroke-linecap:butt;stroke-linejoin:miter;stroke-dasharray:4.41471, 4.41471;stroke-dashoffset:0;stroke-opacity:1"
       id="rect3-6"
       width="319.71307"
       height="416.3757"
       x="586.57251"
       y="192.37794"
       rx="71.562263"
       ry="93.198524" /><rect
       style="fill:#f2c3b1;fill-opacity:1;stroke:#000000;stroke-width:0.983125;stroke-linecap:butt;stroke-linejoin:miter;stroke-dasharray:none;stroke-dashoffset:0;stroke-opacity:1"
       id="rect6-4"
       width="69.101097"
       height="46.689934"
       x="615.99371"
       y="507.69717" /><rect
       style="fill:#f2c3b1;fill-opacity:1;stroke:#000000;stroke-width:0.983125;stroke-linecap:butt;stroke-linejoin:miter;stroke-dasharray:none;stroke-dashoffset:0;stroke-opacity:1"
       id="rect6-9"
       width="69.101097"
       height="46.689934"
       x="709.13434"
       y="508.64288" /><rect
       style="fill:#f2c3b1;fill-opacity:1;stroke:#000000;stroke-width:0.983125;stroke-linecap:butt;stroke-linejoin:miter;stroke-dasharray:none;stroke-dashoffset:0;stroke-opacity:1"
       id="rect6-3"
       width="69.101097"
       height="46.689934"
       x="804.1875"
       y="508.70642" /><rect
       style="fill:none;stroke:#000000;stroke-width:1.95173;stroke-linecap:butt;stroke-linejoin:miter;stroke-dasharray:3.90346, 1.95173;stroke-dashoffset:0;stroke-opacity:1"
       id="rect2"
       width="758.62964"
       height="468.85892"
       x="166.24753"
       y="166.49153"
       ry="41.452652"
       rx="41.452652" /><rect
       style="fill:#cbf2b1;fill-opacity:1;stroke:#000000;stroke-width:1.95173;stroke-linecap:butt;stroke-linejoin:miter;stroke-dasharray:none;stroke-dashoffset:0;stroke-opacity:1"
       id="rect5"
       width="77.062836"
       height="74.576927"
       x="663.11145"
       y="290.2558"
       rx="25.998053"
       ry="25.159405" /><rect
       style="fill:#cbf2b1;fill-opacity:1;stroke:#000000;stroke-width:1.95173;stroke-linecap:butt;stroke-linejoin:miter;stroke-dasharray:none;stroke-dashoffset:0;stroke-opacity:1"
       id="rect5-0-6"
       width="77.062836"
       height="74.576927"
       x="302.36072"
       y="297.08539"
       rx="25.998053"
       ry="25.159405" /><rect
       style="fill:#f2c3b1;fill-opacity:1;stroke:#000000;stroke-width:0.983125;stroke-linecap:butt;stroke-linejoin:miter;stroke-dasharray:none;stroke-dashoffset:0;stroke-opacity:1"
       id="rect6"
       width="69.101097"
       height="46.689934"
       x="306.05103"
       y="509.55759" /><text
       xml:space="preserve"
       style="font-size:10.9677px;writing-mode:lr-tb;direction:ltr;fill:#f2c3b1;fill-opacity:1;stroke:#000000;stroke-width:0.0449071;stroke-linecap:butt;stroke-linejoin:miter;stroke-dasharray:none;stroke-dashoffset:0;stroke-opacity:1"
       x="623.93848"
       y="529.40149"
       id="text7-7"><tspan
         id="tspan7-2"
         x="623.93848"
         y="529.40149"
         style="font-style:normal;font-variant:normal;font-weight:normal;font-stretch:normal;font-size:10.9677px;font-family:'DejaVu Sans';-inkscape-font-specification:'DejaVu Sans, Normal';font-variant-ligatures:normal;font-variant-caps:normal;font-variant-numeric:normal;font-variant-east-asian:normal;fill:#000000;fill-opacity:1;stroke-width:0.0449071;stroke-dasharray:none">Tailscale </tspan><tspan
         x="623.93848"
         y="543.38654"
         style="font-style:normal;font-variant:normal;font-weight:normal;font-stretch:normal;font-size:10.9677px;font-family:'DejaVu Sans';-inkscape-font-specification:'DejaVu Sans, Normal';font-variant-ligatures:normal;font-variant-caps:normal;font-variant-numeric:normal;font-variant-east-asian:normal;fill:#000000;fill-opacity:1;stroke-width:0.0449071;stroke-dasharray:none"
         id="tspan8">Pod</tspan></text><text
       xml:space="preserve"
       style="font-size:10.9677px;writing-mode:lr-tb;direction:ltr;fill:#f2c3b1;fill-opacity:1;stroke:#000000;stroke-width:0.0449071;stroke-linecap:butt;stroke-linejoin:miter;stroke-dasharray:none;stroke-dashoffset:0;stroke-opacity:1"
       x="529.08112"
       y="143.19962"
       id="text7-7-3"><tspan
         id="tspan7-2-2"
         x="529.08112"
         y="143.19962"
         style="font-style:normal;font-variant:normal;font-weight:normal;font-stretch:normal;font-size:10.9677px;font-family:'DejaVu Sans';-inkscape-font-specification:'DejaVu Sans, Normal';font-variant-ligatures:normal;font-variant-caps:normal;font-variant-numeric:normal;font-variant-east-asian:normal;fill:#000000;fill-opacity:1;stroke-width:0.0449071;stroke-dasharray:none">Tailscale </tspan><tspan
         x="529.08112"
         y="157.18463"
         style="font-style:normal;font-variant:normal;font-weight:normal;font-stretch:normal;font-size:10.9677px;font-family:'DejaVu Sans';-inkscape-font-specification:'DejaVu Sans, Normal';font-variant-ligatures:normal;font-variant-caps:normal;font-variant-numeric:normal;font-variant-east-asian:normal;fill:#000000;fill-opacity:1;stroke-width:0.0449071;stroke-dasharray:none"
         id="tspan8-6">VPN</tspan></text><text
       xml:space="preserve"
       style="font-size:10.9677px;writing-mode:lr-tb;direction:ltr;fill:#f2c3b1;fill-opacity:1;stroke:#000000;stroke-width:0.0449071;stroke-linecap:butt;stroke-linejoin:miter;stroke-dasharray:none;stroke-dashoffset:0;stroke-opacity:1"
       x="726.11572"
       y="534.62744"
       id="text7-7-0"><tspan
         x="726.11572"
         y="534.62744"
         style="font-style:normal;font-variant:normal;font-weight:normal;font-stretch:normal;font-size:10.9677px;font-family:'DejaVu Sans';-inkscape-font-specification:'DejaVu Sans, Normal';font-variant-ligatures:normal;font-variant-caps:normal;font-variant-numeric:normal;font-variant-east-asian:normal;fill:#000000;fill-opacity:1;stroke-width:0.0449071;stroke-dasharray:none"
         id="tspan8-8">Nginx</tspan></text><text
       xml:space="preserve"
       style="font-size:10.9677px;writing-mode:lr-tb;direction:ltr;fill:#f2c3b1;fill-opacity:1;stroke:#000000;stroke-width:0.0449071;stroke-linecap:butt;stroke-linejoin:miter;stroke-dasharray:none;stroke-dashoffset:0;stroke-opacity:1"
       x="320.40652"
       y="534.69086"
       id="text7-7-0-16"><tspan
         x="320.40652"
         y="534.69086"
         style="font-style:normal;font-variant:normal;font-weight:normal;font-stretch:normal;font-size:10.9677px;font-family:'DejaVu Sans';-inkscape-font-specification:'DejaVu Sans, Normal';font-variant-ligatures:normal;font-variant-caps:normal;font-variant-numeric:normal;font-variant-east-asian:normal;fill:#000000;fill-opacity:1;stroke-width:0.0449071;stroke-dasharray:none"
         id="tspan8-8-94">Caddy</tspan></text><text
       xml:space="preserve"
       style="font-size:10.9677px;writing-mode:lr-tb;direction:ltr;fill:#f2c3b1;fill-opacity:1;stroke:#000000;stroke-width:0.0449071;stroke-linecap:butt;stroke-linejoin:miter;stroke-dasharray:none;stroke-dashoffset:0;stroke-opacity:1"
       x="666.62939"
       y="329.94339"
       id="text7-7-0-4-5"><tspan
         x="666.62939"
         y="329.94339"
         style="font-style:normal;font-variant:normal;font-weight:normal;font-stretch:normal;font-size:10.9677px;font-family:'DejaVu Sans';-inkscape-font-specification:'DejaVu Sans, Normal';font-variant-ligatures:normal;font-variant-caps:normal;font-variant-numeric:normal;font-variant-east-asian:normal;fill:#000000;fill-opacity:1;stroke-width:0.0449071;stroke-dasharray:none"
         id="tspan8-8-4-7">Master Node</tspan></text><rect
       style="fill:#cbf2b1;fill-opacity:1;stroke:#000000;stroke-width:1.95173;stroke-linecap:butt;stroke-linejoin:miter;stroke-dasharray:none;stroke-dashoffset:0;stroke-opacity:1"
       id="rect5-3"
       width="77.062836"
       height="74.576927"
       x="760.33539"
       y="289.75244"
       rx="25.998053"
       ry="25.159405" /><text
       xml:space="preserve"
       style="font-size:10.9677px;writing-mode:lr-tb;direction:ltr;fill:#f2c3b1;fill-opacity:1;stroke:#000000;stroke-width:0.0449071;stroke-linecap:butt;stroke-linejoin:miter;stroke-dasharray:none;stroke-dashoffset:0;stroke-opacity:1"
       x="763.85333"
       y="329.44003"
       id="text7-7-0-4-5-8"><tspan
         x="763.85333"
         y="329.44003"
         style="font-style:normal;font-variant:normal;font-weight:normal;font-stretch:normal;font-size:10.9677px;font-family:'DejaVu Sans';-inkscape-font-specification:'DejaVu Sans, Normal';font-variant-ligatures:normal;font-variant-caps:normal;font-variant-numeric:normal;font-variant-east-asian:normal;fill:#000000;fill-opacity:1;stroke-width:0.0449071;stroke-dasharray:none"
         id="tspan8-8-4-7-5">Worker Node</tspan></text><rect
       style="fill:#cbf2b1;fill-opacity:1;stroke:#000000;stroke-width:1.95173;stroke-linecap:butt;stroke-linejoin:miter;stroke-dasharray:none;stroke-dashoffset:0;stroke-opacity:1"
       id="rect5-3-2"
       width="77.062836"
       height="74.576927"
       x="663.31665"
       y="376.52698"
       rx="25.998053"
       ry="25.159405" /><text
       xml:space="preserve"
       style="font-size:10.9677px;writing-mode:lr-tb;direction:ltr;fill:#f2c3b1;fill-opacity:1;stroke:#000000;stroke-width:0.0449071;stroke-linecap:butt;stroke-linejoin:miter;stroke-dasharray:none;stroke-dashoffset:0;stroke-opacity:1"
       x="666.83459"
       y="416.21457"
       id="text7-7-0-4-5-8-8"><tspan
         x="666.83459"
         y="416.21457"
         style="font-style:normal;font-variant:normal;font-weight:normal;font-stretch:normal;font-size:10.9677px;font-family:'DejaVu Sans';-inkscape-font-specification:'DejaVu Sans, Normal';font-variant-ligatures:normal;font-variant-caps:normal;font-variant-numeric:normal;font-variant-east-asian:normal;fill:#000000;fill-opacity:1;stroke-width:0.0449071;stroke-dasharray:none"
         id="tspan8-8-4-7-5-2">Worker Node</tspan></text><rect
       style="fill:#cbf2b1;fill-opacity:1;stroke:#000000;stroke-width:1.95173;stroke-linecap:butt;stroke-linejoin:miter;stroke-dasharray:none;stroke-dashoffset:0;stroke-opacity:1"
       id="rect5-3-7"
       width="77.062836"
       height="74.576927"
       x="759.32617"
       y="374.7308"
       rx="25.998053"
       ry="25.159405" /><text
       xml:space="preserve"
       style="font-size:10.9677px;writing-mode:lr-tb;direction:ltr;fill:#f2c3b1;fill-opacity:1;stroke:#000000;stroke-width:0.0449071;stroke-linecap:butt;stroke-linejoin:miter;stroke-dasharray:none;stroke-dashoffset:0;stroke-opacity:1"
       x="762.84412"
       y="414.41837"
       id="text7-7-0-4-5-8-0"><tspan
         x="762.84412"
         y="414.41837"
         style="font-style:normal;font-variant:normal;font-weight:normal;font-stretch:normal;font-size:10.9677px;font-family:'DejaVu Sans';-inkscape-font-specification:'DejaVu Sans, Normal';font-variant-ligatures:normal;font-variant-caps:normal;font-variant-numeric:normal;font-variant-east-asian:normal;fill:#000000;fill-opacity:1;stroke-width:0.0449071;stroke-dasharray:none"
         id="tspan8-8-4-7-5-7">Worker Node</tspan></text><text
       xml:space="preserve"
       style="font-size:10.9677px;writing-mode:lr-tb;direction:ltr;fill:#f2c3b1;fill-opacity:1;stroke:#000000;stroke-width:0.0449071;stroke-linecap:butt;stroke-linejoin:miter;stroke-dasharray:none;stroke-dashoffset:0;stroke-opacity:1"
       x="326.76202"
       y="336.35867"
       id="text7-7-0-4-1"><tspan
         x="326.76202"
         y="336.35867"
         style="font-style:normal;font-variant:normal;font-weight:normal;font-stretch:normal;font-size:10.9677px;font-family:'DejaVu Sans';-inkscape-font-specification:'DejaVu Sans, Normal';font-variant-ligatures:normal;font-variant-caps:normal;font-variant-numeric:normal;font-variant-east-asian:normal;fill:#000000;fill-opacity:1;stroke-width:0.0449071;stroke-dasharray:none"
         id="tspan8-8-4-3">EC2</tspan></text><text
       xml:space="preserve"
       style="font-size:10.9677px;writing-mode:lr-tb;direction:ltr;fill:#f2c3b1;fill-opacity:1;stroke:#000000;stroke-width:0.0449071;stroke-linecap:butt;stroke-linejoin:miter;stroke-dasharray:none;stroke-dashoffset:0;stroke-opacity:1"
       x="814.89825"
       y="528.30365"
       id="text7-7-04"><tspan
         x="814.89825"
         y="528.30365"
         style="font-style:normal;font-variant:normal;font-weight:normal;font-stretch:normal;font-size:10.9677px;font-family:'DejaVu Sans';-inkscape-font-specification:'DejaVu Sans, Normal';font-variant-ligatures:normal;font-variant-caps:normal;font-variant-numeric:normal;font-variant-east-asian:normal;fill:#000000;fill-opacity:1;stroke-width:0.0449071;stroke-dasharray:none"
         id="tspan8-5">End </tspan><tspan
         x="814.89825"
         y="542.2887"
         style="font-style:normal;font-variant:normal;font-weight:normal;font-stretch:normal;font-size:10.9677px;font-family:'DejaVu Sans';-inkscape-font-specification:'DejaVu Sans, Normal';font-variant-ligatures:normal;font-variant-caps:normal;font-variant-numeric:normal;font-variant-east-asian:normal;fill:#000000;fill-opacity:1;stroke-width:0.0449071;stroke-dasharray:none"
         id="tspan10">Service</tspan></text><text
       xml:space="preserve"
       style="font-size:10.9677px;writing-mode:lr-tb;direction:ltr;fill:#f2c3b1;fill-opacity:1;stroke:#000000;stroke-width:0.0449071;stroke-linecap:butt;stroke-linejoin:miter;stroke-dasharray:none;stroke-dashoffset:0;stroke-opacity:1"
       x="942.56879"
       y="514.87982"
       id="text7-7-04-4"><tspan
         x="942.56879"
         y="514.87982"
         style="font-style:normal;font-variant:normal;font-weight:normal;font-stretch:normal;font-size:10.9677px;font-family:'DejaVu Sans';-inkscape-font-specification:'DejaVu Sans, Normal';font-variant-ligatures:normal;font-variant-caps:normal;font-variant-numeric:normal;font-variant-east-asian:normal;fill:#000000;fill-opacity:1;stroke-width:0.0449071;stroke-dasharray:none"
         id="tspan10-1">Services/applications</tspan></text><text
       xml:space="preserve"
       style="font-size:10.9677px;writing-mode:lr-tb;direction:ltr;fill:#f2c3b1;fill-opacity:1;stroke:#000000;stroke-width:0.0449071;stroke-linecap:butt;stroke-linejoin:miter;stroke-dasharray:none;stroke-dashoffset:0;stroke-opacity:1"
       x="934.55469"
       y="342.66495"
       id="text7-7-04-4-8"><tspan
         x="934.55469"
         y="342.66495"
         style="font-style:normal;font-variant:normal;font-weight:normal;font-stretch:normal;font-size:10.9677px;font-family:'DejaVu Sans';-inkscape-font-specification:'DejaVu Sans, Normal';font-variant-ligatures:normal;font-variant-caps:normal;font-variant-numeric:normal;font-variant-east-asian:normal;fill:#000000;fill-opacity:1;stroke-width:0.0449071;stroke-dasharray:none"
         id="tspan10-1-1">Kubernetes environment</tspan></text><text
       xml:space="preserve"
       style="font-size:10.9677px;writing-mode:lr-tb;direction:ltr;fill:#f2c3b1;fill-opacity:1;stroke:#000000;stroke-width:0.0449071;stroke-linecap:butt;stroke-linejoin:miter;stroke-dasharray:none;stroke-dashoffset:0;stroke-opacity:1"
       x="58.809483"
       y="329.9646"
       id="text7-7-04-4-9"><tspan
         x="58.809483"
         y="329.9646"
         style="font-style:normal;font-variant:normal;font-weight:normal;font-stretch:normal;font-size:10.9677px;font-family:'DejaVu Sans';-inkscape-font-specification:'DejaVu Sans, Normal';font-variant-ligatures:normal;font-variant-caps:normal;font-variant-numeric:normal;font-variant-east-asian:normal;fill:#000000;fill-opacity:1;stroke-width:0.0449071;stroke-dasharray:none"
         id="tspan10-1-3">EC2 environment</tspan></text><text
       xml:space="preserve"
       style="font-size:10.9677px;writing-mode:lr-tb;direction:ltr;fill:#f2c3b1;fill-opacity:1;stroke:#000000;stroke-width:0.0449071;stroke-linecap:butt;stroke-linejoin:miter;stroke-dasharray:none;stroke-dashoffset:0;stroke-opacity:1"
       x="74.124748"
       y="534.50043"
       id="text7-7-04-4-3"><tspan
         x="74.124748"
         y="534.50043"
         style="font-style:normal;font-variant:normal;font-weight:normal;font-stretch:normal;font-size:10.9677px;font-family:'DejaVu Sans';-inkscape-font-specification:'DejaVu Sans, Normal';font-variant-ligatures:normal;font-variant-caps:normal;font-variant-numeric:normal;font-variant-east-asian:normal;fill:#000000;fill-opacity:1;stroke-width:0.0449071;stroke-dasharray:none"
         id="tspan10-1-8">Internet</tspan></text><path
       style="display:inline;fill:none;fill-rule:evenodd;stroke:#000000;stroke-width:1.26085;stroke-linecap:butt;stroke-linejoin:miter;stroke-dasharray:none;stroke-opacity:1;marker-end:url(#ArrowWide)"
       d="m 122.88484,533.26749 183.16619,-0.30702"
       id="path10" /><path
       style="fill:none;fill-rule:evenodd;stroke:#000000;stroke-width:1.26085;stroke-linecap:butt;stroke-linejoin:miter;stroke-dasharray:none;stroke-opacity:1;marker-end:url(#marker14)"
       d="m 375.15212,532.69517 240.84159,-1.44564"
       id="path11" /><path
       style="fill:none;fill-rule:evenodd;stroke:#000000;stroke-width:1.26085;stroke-linecap:butt;stroke-linejoin:miter;stroke-dasharray:none;stroke-opacity:1;marker-end:url(#marker15)"
       d="m 685.09481,531.39295 24.03953,0.24409"
       id="path12" /><path
       style="fill:none;fill-rule:evenodd;stroke:#000000;stroke-width:1.26085;stroke-linecap:butt;stroke-linejoin:miter;stroke-dasharray:none;stroke-opacity:1;marker-end:url(#marker16)"
       d="m 778.23544,532.01095 25.95206,0.0173"
       id="path13" /><g
       id="g23"
       transform="matrix(0.19649254,0,0,0.19649254,699.25276,260.69124)"><path
         d="m 79.797436,18.8 c -0.5,-1.6 -1.7,-2.9 -3.2,-3.7 l -30.5,-14.6 c -0.8,-0.4 -1.7,-0.5 -2.5,-0.5 -0.8,0 -1.7,0 -2.5,0.2 l -30.5,14.7 c -1.5000002,0.7 -2.6000002,2 -3.0000002,3.7 L 0.09743584,51.5 c -0.3,1.7 0.1,3.4 1.09999996,4.8 L 22.297436,82.4 c 1.2,1.2 2.9,2 4.6,2.1 h 33.6 c 1.8,0.2 3.5,-0.6 4.6,-2.1 l 21.1,-26.1 c 1,-1.4 1.4,-3.1 1.2,-4.8 z"
         id="path10349"
         style="fill:#326de6" /><path
         d="m 75.097436,50.2 v 0 c -0.1,0 -0.2,0 -0.2,-0.1 0,-0.1 -0.2,-0.1 -0.4,-0.1 -0.4,-0.1 -0.8,-0.1 -1.2,-0.1 -0.2,0 -0.4,0 -0.6,-0.1 h -0.1 c -1.1,-0.1 -2.3,-0.3 -3.4,-0.6 -0.3,-0.1 -0.6,-0.4 -0.7,-0.7 0.1,0 0,0 0,0 v 0 l -0.8,-0.2 c 0.4,-2.9 0.2,-5.9 -0.4,-8.8 -0.7,-2.9 -1.9,-5.7 -3.5,-8.2 l 0.6,-0.6 v 0 -0.1 c 0,-0.3 0.1,-0.7 0.3,-0.9 0.9,-0.8 1.8,-1.4 2.8,-2 v 0 c 0.2,-0.1 0.4,-0.2 0.6,-0.3 0.4,-0.2 0.7,-0.4 1.1,-0.6 0.1,-0.1 0.2,-0.1 0.3,-0.2 0.1,-0.1 0,-0.1 0,-0.2 v 0 c 0.9,-0.7 1.1,-1.9 0.4,-2.8 -0.3,-0.4 -0.9,-0.7 -1.4,-0.7 -0.5,0 -1,0.2 -1.4,0.5 v 0 l -0.1,0.1 c -0.1,0.1 -0.2,0.2 -0.3,0.2 -0.3,0.3 -0.6,0.6 -0.8,0.9 -0.1,0.2 -0.3,0.3 -0.4,0.4 v 0 c -0.7,0.8 -1.6,1.6 -2.5,2.2 -0.2,0.1 -0.4,0.2 -0.6,0.2 -0.1,0 -0.3,0 -0.4,-0.1 h -0.1 l -0.8,0.5 c -0.8,-0.8 -1.7,-1.6 -2.5,-2.4 -3.7,-2.9 -8.3,-4.7 -13,-5.2 l -0.1,-0.8 v 0 0.1 c -0.3,-0.2 -0.4,-0.5 -0.5,-0.8 0,-1.1 0,-2.2 0.2,-3.4 v -0.1 c 0,-0.2 0.1,-0.4 0.1,-0.6 0.1,-0.4 0.1,-0.8 0.2,-1.2 v -0.6 0 c 0.1,-1 -0.7,-2 -1.7,-2.1 -0.6,-0.1 -1.2,0.2 -1.7,0.7 -0.4,0.4 -0.6,0.9 -0.6,1.4 v 0 0.5 c 0,0.4 0.1,0.8 0.2,1.2 0.1,0.2 0.1,0.4 0.1,0.6 v 0.1 c 0.2,1.1 0.2,2.2 0.2,3.4 -0.1,0.3 -0.2,0.6 -0.5,0.8 v 0.2 0 l -0.1,0.8 c -1.1,0.1 -2.2,0.3 -3.4,0.5 -4.7,1 -9,3.5 -12.3,7 l -0.6,-0.4 h -0.1 c -0.1,0 -0.2,0.1 -0.4,0.1 -0.2,0 -0.4,-0.1 -0.6,-0.2 -0.9,-0.7 -1.8,-1.5 -2.5,-2.3 v 0 c -0.1,-0.2 -0.3,-0.3 -0.4,-0.4 -0.3,-0.3 -0.5,-0.6 -0.8,-0.9 -0.1,-0.1 -0.2,-0.1 -0.3,-0.2 -0.1,-0.1 -0.1,-0.1 -0.1,-0.1 v 0 c -0.4,-0.3 -0.9,-0.5 -1.4,-0.5 -0.6,0 -1.1,0.2 -1.4,0.7 -0.6,0.9 -0.4,2.1 0.4,2.8 v 0 c 0.1,0 0.1,0.1 0.1,0.1 0,0 0.2,0.2 0.3,0.2 0.3,0.2 0.7,0.4 1.1,0.6 0.2,0.1 0.4,0.2 0.6,0.3 v 0 c 1,0.6 2,1.2 2.8,2 0.2,0.2 0.4,0.6 0.3,0.9 v -0.1 0 l 0.6,0.6 c -0.1,0.2 -0.2,0.3 -0.3,0.5 -3.1,4.9 -4.4,10.7 -3.5,16.4 l -0.8,0.2 v 0 c 0,0.1 -0.1,0.1 -0.1,0.1 -0.1,0.3 -0.4,0.5 -0.7,0.7 -1.1,0.3 -2.2,0.5 -3.4,0.6 v 0 c -0.2,0 -0.4,0 -0.6,0.1 -0.4,0 -0.8,0.1 -1.2,0.1 -0.1,0 -0.2,0.1 -0.4,0.1 -0.1,0 -0.1,0 -0.2,0.1 v 0 c -1.1,0.2 -1.8,1.2 -1.6,2.3 0,0 0,0 0,0 0.2,0.9 1.1,1.5 2,1.4 0.2,0 0.3,0 0.5,-0.1 v 0 c 0.1,0 0.1,0 0.1,-0.1 0,-0.1 0.3,0 0.4,0 0.4,-0.1 0.8,-0.3 1.1,-0.4 0.2,-0.1 0.4,-0.2 0.6,-0.2 h 0.1 c 1.1,-0.4 2.1,-0.7 3.3,-0.9 h 0.1 c 0.3,0 0.6,0.1 0.8,0.3 0.1,0 0.1,0.1 0.1,0.1 v 0 l 0.9,-0.1 c 1.5,4.6 4.3,8.7 8.2,11.7 0.9,0.7 1.7,1.3 2.7,1.8 l -0.5,0.7 v 0 c 0,0.1 0.1,0.1 0.1,0.1 0.2,0.3 0.2,0.7 0.1,1 -0.4,1 -1,2 -1.6,2.9 v 0.1 c -0.1,0.2 -0.2,0.3 -0.4,0.5 -0.2,0.2 -0.4,0.6 -0.7,1 -0.1,0.1 -0.1,0.2 -0.2,0.3 0,0 0,0.1 -0.1,0.1 v 0 c -0.5,1 -0.1,2.2 0.8,2.7 0.2,0.1 0.5,0.2 0.7,0.2 0.8,0 1.5,-0.5 1.9,-1.2 v 0 c 0,0 0,-0.1 0.1,-0.1 0,-0.1 0.1,-0.2 0.2,-0.3 0.1,-0.4 0.3,-0.7 0.4,-1.1 l 0.2,-0.6 v 0 c 0.3,-1.1 0.8,-2.1 1.3,-3.1 0.2,-0.3 0.5,-0.5 0.8,-0.6 0.1,0 0.1,0 0.1,-0.1 v 0 l 0.4,-0.8 c 2.8,1.1 5.7,1.6 8.7,1.6 1.8,0 3.6,-0.2 5.4,-0.7 1.1,-0.2 2.2,-0.6 3.2,-0.9 l 0.4,0.7 v 0 c 0.1,0 0.1,0 0.1,0.1 0.3,0.1 0.6,0.3 0.8,0.6 0.5,1 1,2 1.3,3.1 v 0.1 l 0.2,0.6 c 0.1,0.4 0.2,0.8 0.4,1.1 0.1,0.1 0.1,0.2 0.2,0.3 0,0 0,0.1 0.1,0.1 v 0 c 0.4,0.7 1.1,1.2 1.9,1.2 0.3,0 0.5,-0.1 0.8,-0.2 0.4,-0.2 0.8,-0.6 0.9,-1.1 0.1,-0.5 0.1,-1 -0.1,-1.5 v 0 c 0,-0.1 -0.1,-0.1 -0.1,-0.1 0,-0.1 -0.1,-0.2 -0.2,-0.3 -0.2,-0.4 -0.4,-0.7 -0.7,-1 -0.1,-0.2 -0.2,-0.3 -0.4,-0.5 v -0.2 c -0.7,-0.9 -1.2,-1.9 -1.6,-2.9 -0.1,-0.3 -0.1,-0.7 0.1,-1 0,-0.1 0.1,-0.1 0.1,-0.1 v 0 l -0.3,-0.8 c 5.1,-3.1 9,-7.9 10.8,-13.6 l 0.8,0.1 v 0 c 0.1,0 0.1,-0.1 0.1,-0.1 0.2,-0.2 0.5,-0.3 0.8,-0.3 h 0.1 c 1.1,0.2 2.2,0.5 3.2,0.9 h 0.1 c 0.2,0.1 0.4,0.2 0.6,0.2 0.4,0.2 0.7,0.4 1.1,0.5 0.1,0 0.2,0.1 0.4,0.1 0.1,0 0.1,0 0.2,0.1 v 0 c 0.2,0.1 0.3,0.1 0.5,0.1 0.9,0 1.7,-0.6 2,-1.4 -0.1,-1.1 -0.9,-1.9 -1.8,-2.1 z m -28.9,-3.1 -2.7,1.3 -2.7,-1.3 -0.7,-2.9 1.9,-2.4 h 3 l 1.9,2.4 z m 16.3,-6.5 c 0.5,2.1 0.6,4.2 0.4,6.3 l -9.5,-2.7 v 0 c -0.9,-0.2 -1.4,-1.1 -1.2,-2 0.1,-0.3 0.2,-0.5 0.4,-0.7 l 7.5,-6.8 c 1.1,1.8 1.9,3.8 2.4,5.9 z m -5.4,-9.6 -8.2,5.8 c -0.7,0.4 -1.7,0.3 -2.2,-0.4 -0.2,-0.2 -0.3,-0.4 -0.3,-0.7 l -0.6,-10.1 c 4.4,0.5 8.3,2.4 11.3,5.4 z m -18.1,-5.1 2,-0.4 -0.5,10 v 0 c 0,0.9 -0.8,1.6 -1.7,1.6 -0.3,0 -0.5,-0.1 -0.8,-0.2 l -8.3,-5.9 c 2.6,-2.5 5.8,-4.3 9.3,-5.1 z m -12.2,8.8 7.4,6.6 v 0 c 0.7,0.6 0.8,1.6 0.2,2.3 -0.2,0.3 -0.4,0.4 -0.8,0.5 l -9.7,2.8 c -0.3,-4.2 0.7,-8.5 2.9,-12.2 z m -1.7,16.9 9.9,-1.7 c 0.8,0 1.6,0.5 1.7,1.3 0.1,0.3 0.1,0.7 -0.1,1 v 0 l -3.8,9.2 c -3.5,-2.3 -6.3,-5.8 -7.7,-9.8 z m 22.7,12.4 c -1.4,0.3 -2.8,0.5 -4.3,0.5 -2.1,0 -4.3,-0.4 -6.3,-1 l 4.9,-8.9 c 0.5,-0.6 1.3,-0.8 2,-0.4 0.3,0.2 0.5,0.4 0.8,0.7 v 0 l 4.8,8.7 c -0.6,0.1 -1.2,0.2 -1.9,0.4 z m 12.2,-8.7 c -1.5,2.4 -3.6,4.5 -6,6 l -3.9,-9.4 c -0.2,-0.8 0.2,-1.6 0.9,-1.9 0.3,-0.1 0.6,-0.2 0.9,-0.2 l 10,1.7 c -0.5,1.4 -1.1,2.7 -1.9,3.8 z"
         id="path10351"
         style="fill:#ffffff" /><path
         d="m 484.49744,62.5 c 1.4,0.1 2.9,-0.1 4.2,-0.6 0.8,-0.4 1.3,-1.3 1.2,-2.2 -0.1,-1 -0.7,-1.9 -1.6,-2.2 -1.5,-0.9 -3.2,-1.7 -4.9,-2.2 -1.7,-0.6 -3.2,-1.3 -4.6,-2 -1.3,-0.6 -2.4,-1.4 -3.5,-2.4 -1,-1 -1.7,-2.1 -2.2,-3.4 -0.6,-1.5 -0.8,-3.1 -0.8,-4.7 -0.1,-3.3 1.4,-6.5 4,-8.5 2.7,-2.1 6.3,-3.1 10.9,-3.1 2.2,0 4.5,0.2 6.7,0.7 1.7,0.3 3.4,0.7 5.1,1.3 l -1.9,8.5 c -1.4,-0.5 -2.7,-0.8 -4.1,-1.2 -1.6,-0.4 -3.3,-0.5 -4.9,-0.5 -3.4,0 -5.1,0.9 -5.1,2.8 0,0.4 0.1,0.8 0.2,1.2 0.2,0.4 0.5,0.7 0.9,1 0.4,0.3 1,0.6 1.7,1 0.7,0.4 1.7,0.8 2.9,1.2 2,0.7 4,1.6 5.8,2.6 1.4,0.7 2.6,1.6 3.6,2.8 0.9,0.9 1.5,2 1.9,3.3 0.4,1.4 0.6,2.8 0.6,4.2 0.2,3.4 -1.4,6.7 -4.3,8.6 -2.8,1.9 -6.8,2.9 -12,2.9 -2.9,0.1 -5.7,-0.2 -8.5,-0.9 -1.6,-0.4 -3.1,-0.9 -4.6,-1.4 l 1.8,-8.8 c 1.8,0.7 3.7,1.3 5.6,1.7 2,0.1 3.9,0.3 5.9,0.3 m -55.1,-11 c -0.1,-3 0.5,-6 1.5,-8.8 0.9,-2.4 2.3,-4.5 4.1,-6.4 1.7,-1.7 3.6,-3 5.8,-3.8 2.2,-0.9 4.5,-1.3 6.8,-1.3 5.4,0 9.7,1.7 12.8,5 3.1,3.3 4.7,8.2 4.7,14.6 0,0.6 0,1.3 -0.1,2.1 0,0.8 -0.1,1.4 -0.1,2 h -24.4 c 0.2,2.1 1.3,4.1 3.1,5.3 2.2,1.4 4.8,2.1 7.4,2 1.9,0 3.9,-0.2 5.8,-0.5 1.6,-0.3 3.2,-0.8 4.7,-1.5 l 1.5,8.8 c -0.7,0.4 -1.5,0.6 -2.3,0.9 -1.1,0.3 -2.2,0.6 -3.3,0.7 -1.2,0.2 -2.4,0.4 -3.8,0.6 -1.3,0.1 -2.7,0.2 -4.1,0.2 -3.1,0.1 -6.1,-0.4 -9,-1.5 -2.4,-0.9 -4.5,-2.3 -6.3,-4.1 -1.7,-1.8 -2.9,-4 -3.7,-6.3 -0.7,-2.7 -1.1,-5.4 -1.1,-8 m 25.3,-4.1 c 0,-0.9 -0.2,-1.8 -0.5,-2.7 -0.2,-0.9 -0.7,-1.6 -1.2,-2.3 -0.6,-0.7 -1.3,-1.3 -2.1,-1.7 -1,-0.5 -2,-0.7 -3.1,-0.7 -1.1,0 -2.1,0.2 -3.1,0.7 -0.8,0.4 -1.6,0.9 -2.2,1.6 -0.6,0.7 -1.1,1.5 -1.4,2.4 -0.3,0.9 -0.5,1.8 -0.6,2.7 h 14.2 m -54.6,-24.8 10.8,-1.7 v 11.2 h 13 v 9 h -13 v 13.4 c -0.1,1.9 0.3,3.8 1.2,5.4 0.8,1.3 2.4,2 4.9,2 1.2,0 2.4,-0.1 3.5,-0.3 1.2,-0.2 2.3,-0.5 3.4,-0.9 l 1.5,8.4 c -1.4,0.6 -2.9,1 -4.4,1.4 -1.9,0.4 -3.9,0.6 -5.9,0.6 -2.5,0.1 -5,-0.3 -7.3,-1.2 -1.8,-0.7 -3.4,-1.9 -4.6,-3.3 -1.2,-1.5 -2,-3.3 -2.5,-5.2 -0.5,-2.2 -0.7,-4.5 -0.6,-6.7 V 22.6 m -43.7,28.9 c -0.1,-3 0.5,-6 1.5,-8.8 0.9,-2.4 2.3,-4.5 4.1,-6.4 1.7,-1.7 3.6,-3 5.8,-3.8 2.2,-0.9 4.5,-1.3 6.8,-1.3 5.4,0 9.7,1.7 12.8,5 3.1,3.3 4.7,8.2 4.7,14.6 0,0.6 0,1.3 -0.1,2.1 -0.1,0.8 -0.1,1.4 -0.1,2 h -24.5 c 0.2,2.1 1.3,4.1 3.1,5.3 2.2,1.4 4.8,2.1 7.4,2 1.9,0 3.9,-0.2 5.8,-0.5 1.6,-0.3 3.2,-0.8 4.8,-1.5 l 1.5,8.8 c -0.7,0.4 -1.5,0.6 -2.3,0.9 -1.1,0.3 -2.2,0.6 -3.3,0.7 -1.2,0.2 -2.4,0.4 -3.8,0.6 -1.3,0.1 -2.7,0.2 -4.1,0.2 -3.1,0.1 -6.1,-0.4 -9,-1.5 -2.4,-0.9 -4.5,-2.3 -6.3,-4.1 -1.7,-1.8 -2.9,-4 -3.7,-6.3 -0.8,-2.7 -1.2,-5.4 -1.1,-8 m 25.3,-4.1 c 0,-0.9 -0.2,-1.8 -0.5,-2.7 -0.2,-0.9 -0.7,-1.6 -1.2,-2.3 -0.6,-0.7 -1.3,-1.3 -2.1,-1.7 -1,-0.5 -2,-0.7 -3.1,-0.7 -1.1,0 -2.1,0.2 -3.1,0.7 -0.8,0.4 -1.5,0.9 -2.1,1.6 -0.6,0.7 -1.1,1.5 -1.4,2.4 -0.3,0.9 -0.5,1.8 -0.6,2.7 h 14.1 m -66.3,-14 c 2.3,-0.6 4.7,-1.1 7.1,-1.5 3,-0.5 6.1,-0.7 9.1,-0.7 2.7,-0.1 5.4,0.4 8,1.3 2,0.7 3.8,1.9 5.1,3.5 1.3,1.6 2.2,3.5 2.7,5.5 0.6,2.3 0.8,4.7 0.8,7.1 v 21.5 h -10.7 V 50 c 0,-3.5 -0.5,-5.9 -1.4,-7.4 -0.9,-1.4 -2.6,-2.2 -5.1,-2.2 -0.8,0 -1.6,0 -2.5,0.1 -0.9,0 -1.6,0.1 -2.3,0.2 v 29.4 h -10.8 V 33.4 m -7.6,8.3 c -1,-0.2 -2.1,-0.5 -3.4,-0.7 -1.4,-0.3 -2.8,-0.4 -4.2,-0.4 -0.8,0 -1.6,0.1 -2.5,0.2 -0.7,0.1 -1.4,0.2 -2.1,0.4 v 29.1 h -10.8 V 34.1 c 2.2,-0.8 4.5,-1.4 6.8,-1.9 2.9,-0.7 5.9,-1 8.8,-0.9 0.7,0 1.4,0.1 2.1,0.1 0.8,0 1.6,0.1 2.5,0.3 0.8,0.1 1.6,0.2 2.5,0.4 0.7,0.1 1.4,0.3 2.1,0.6 l -1.8,9 m -67.1,9.8 c -0.1,-3 0.5,-6 1.5,-8.8 0.9,-2.4 2.3,-4.5 4.1,-6.4 1.7,-1.7 3.6,-3 5.8,-3.8 2.2,-0.9 4.5,-1.3 6.8,-1.3 5.4,0 9.7,1.7 12.8,5 3.1,3.3 4.7,8.2 4.7,14.5 0,0.6 0,1.3 -0.1,2.1 -0.1,0.8 -0.1,1.4 -0.1,2 h -24.5 c 0.2,2.1 1.3,4.1 3.1,5.3 2.2,1.4 4.8,2.1 7.4,2 1.9,0 3.9,-0.2 5.8,-0.5 1.6,-0.3 3.2,-0.8 4.7,-1.4 l 1.5,8.8 c -0.7,0.4 -1.5,0.6 -2.3,0.9 -1.1,0.3 -2.2,0.6 -3.3,0.7 -1.2,0.2 -2.4,0.4 -3.8,0.6 -1.3,0.1 -2.7,0.2 -4.1,0.2 -3.1,0.1 -6.1,-0.4 -9,-1.5 -2.4,-0.9 -4.5,-2.3 -6.3,-4.1 -1.7,-1.8 -2.9,-4 -3.7,-6.3 -0.6,-2.7 -1,-5.3 -1,-8 m 25.4,-4.1 c 0,-0.9 -0.2,-1.8 -0.5,-2.7 -0.2,-0.9 -0.7,-1.6 -1.2,-2.3 -0.6,-0.7 -1.3,-1.3 -2.1,-1.7 -1,-0.5 -2,-0.7 -3.1,-0.7 -1.1,0 -2.1,0.2 -3.1,0.7 -0.8,0.4 -1.6,0.9 -2.2,1.6 -0.6,0.7 -1.1,1.5 -1.4,2.4 -0.3,0.9 -0.5,1.8 -0.6,2.7 h 14.2 m -42.9,3.5 c 0,-7 -2.6,-10.4 -7.7,-10.4 -1.1,0 -2.2,0.1 -3.3,0.4 -0.9,0.2 -1.8,0.6 -2.6,1.1 v 19.6 c 0.5,0.1 1.2,0.2 2,0.3 0.8,0.1 1.7,0.1 2.7,0.1 2.6,0.2 5.1,-0.9 6.7,-3 1.5,-2.4 2.3,-5.2 2.2,-8.1 m 11,0.4 c 0,2.8 -0.4,5.6 -1.4,8.3 -0.8,2.4 -2.1,4.5 -3.8,6.3 -1.8,1.8 -3.9,3.2 -6.2,4.1 -2.7,1 -5.5,1.4 -8.4,1.4 -1.3,0 -2.7,-0.1 -4.1,-0.2 -1.4,-0.1 -2.8,-0.3 -4.2,-0.4 -1.3,-0.2 -2.6,-0.4 -3.9,-0.7 -1.3,-0.2 -2.4,-0.5 -3.3,-0.9 V 15.7 l 10.8,-1.7 v 19 c 1.2,-0.5 2.5,-0.9 3.8,-1.2 1.4,-0.3 2.8,-0.4 4.2,-0.4 2.5,0 4.9,0.4 7.2,1.5 2,0.9 3.8,2.3 5.2,4 1.5,1.9 2.6,4 3.2,6.3 0.6,2.5 0.9,5.3 0.9,8.1 m -45.6,17.6 c -2.3,0.6 -4.7,1.1 -7.1,1.4 -3,0.5 -6.1,0.7 -9.1,0.7 -2.8,0.1 -5.5,-0.4 -8.1,-1.3 -2,-0.8 -3.7,-2 -5.1,-3.6 -1.3,-1.7 -2.2,-3.6 -2.7,-5.7 -0.6,-2.3 -0.8,-4.8 -0.8,-7.2 V 32.1 h 10.8 V 52 c 0,3.5 0.5,6 1.4,7.5 0.9,1.5 2.6,2.3 5.1,2.3 0.8,0 1.6,0 2.5,-0.1 0.9,-0.1 1.6,-0.1 2.3,-0.3 V 32.1 h 10.8 v 36.8 m -63,-23 c 1.1,-1.2 2.1,-2.4 3.3,-3.6 1.1,-1.3 2.2,-2.5 3.3,-3.7 1.1,-1.3 2.1,-2.4 3,-3.5 0.9,-1.1 1.8,-2.1 2.5,-2.9 h 12.8 c -2.6,2.9 -5.1,5.8 -7.5,8.5 -2.5,2.7 -5.1,5.5 -8,8.3 1.6,1.5 3.1,3 4.5,4.7 1.5,1.8 3,3.6 4.5,5.6 1.4,1.9 2.8,3.9 4,5.8 1.2,1.9 2.2,3.7 3,5.3 h -12.4 c -0.8,-1.3 -1.7,-2.6 -2.7,-4.1 -1,-1.5 -2.1,-3 -3.1,-4.6 -1.1,-1.5 -2.3,-3 -3.6,-4.4 -1.1,-1.3 -2.3,-2.5 -3.6,-3.5 v 16.7 h -10.8 V 15.7 l 10.8,-1.7 v 31.9"
         id="path3003"
         style="fill:#000000" /></g><path
       style="fill:none;fill-rule:evenodd;stroke:#000000;stroke-width:0.913973px;stroke-linecap:butt;stroke-linejoin:miter;stroke-opacity:1;marker-end:url(#marker27)"
       d="M 96.686555,341.74901 223.16103,340.84562"
       id="path24" /><path
       style="fill:none;fill-rule:evenodd;stroke:#000000;stroke-width:0.913973px;stroke-linecap:butt;stroke-linejoin:miter;stroke-opacity:1;marker-end:url(#marker28)"
       d="M 1000.979,355.29985 863.66388,354.39646"
       id="path25" /><path
       style="fill:none;fill-rule:evenodd;stroke:#000000;stroke-width:0.913973px;stroke-linecap:butt;stroke-linejoin:miter;stroke-opacity:1;marker-end:url(#marker29)"
       d="M 999.17216,531.46071 H 891.66894"
       id="path26" /></g></svg>
